<svg width="158" height="46" viewBox="0 0 158 46" fill="none" xmlns="http://www.w3.org/2000/svg">
<path d="M19.5584 27.6499C18.4184 28.3981 16.9934 29.1108 15.604 29.5027C14.1434 29.8947 12.2552 29.9659 11.1508 28.9682C7.94453 26.0108 12.8252 20.5949 14.8202 18.1363C16.9578 15.5352 19.6297 13.1479 21.2328 10.2618C23.1922 6.80558 22.1947 3.56313 21.2685 0C25.4366 4.91712 28.2154 9.86987 27.1467 15.9628C26.3629 20.4167 23.976 24.6925 19.5584 27.6499Z" fill="#FF8957"/>
<path d="M12.0059 33.7785C14.3928 34.6692 16.9578 35.2037 19.4872 35.275C20.271 34.6336 21.0547 34.0279 21.8385 33.4934C18.7391 34.206 15.4259 34.3129 12.0059 33.7785Z" fill="#CF3336"/>
<path d="M27.8948 33.7428C28.5004 33.4934 29.106 33.1727 29.7117 32.852C34.9843 29.8234 36.4449 24.9063 35.4474 19.9535C34.913 24.3718 32.5973 28.0775 28.2867 30.7854C28.2867 30.8567 28.3223 30.8923 28.3223 30.9636C28.4648 31.9256 28.3579 32.852 27.8948 33.7428Z" fill="#CF3336"/>
<path d="M25.009 30.1084C25.2228 29.6809 25.6147 28.7901 26.6834 28.9682C26.8616 29.0039 27.0041 29.0395 27.1466 29.1108C28.2153 28.3625 29.2485 27.5074 30.1391 26.5097C35.6967 20.488 34.2717 11.9365 28.2153 6.30673C30.7804 12.5066 30.246 19.2409 25.579 24.7281C21.589 29.4314 16.7795 31.89 10.3669 31.0349C12.2551 31.9969 14.6064 32.6026 17.1358 32.6026C19.8077 32.4245 22.4084 31.7118 24.7953 30.5004C24.8309 30.4291 24.8665 30.3935 24.9022 30.3222C24.9378 30.251 24.9734 30.1797 25.009 30.1084Z" fill="#FF5D46"/>
<path d="M35.4117 35.4175C36.9795 34.4555 38.6186 33.6359 39.0461 31.6406C39.1174 31.2843 39.3312 30.8567 38.9749 30.6073C38.5829 30.2866 38.191 30.6073 37.8703 30.8567C37.3002 31.3555 36.837 31.9256 36.4807 32.567C36.0531 33.4578 35.9106 34.4911 35.4117 35.4175Z" fill="#00CCFF"/>
<path d="M31.9565 37.0566C33.9519 36.7715 35.6978 34.6336 35.5553 32.7808C35.5197 32.2463 35.2346 32.0682 34.7358 32.3176C34.0944 32.6383 33.7025 33.1727 33.4174 33.7785C32.883 34.8118 32.4554 35.8807 31.9565 37.0566Z" fill="#00CCFF"/>
<path d="M29.1416 38.0186C31.0301 37.7335 32.2059 36.3439 32.2059 34.6336C32.2059 34.0279 31.8852 34.0279 31.4933 34.206C30.9588 34.4198 30.6025 34.883 30.3531 35.3819C29.9255 36.1658 29.5692 37.0209 29.1416 38.0186Z" fill="#00CCFF"/>
<path d="M22.3728 46C31.6711 46 39.6156 40.1921 43 31.89C42.8931 31.7119 42.7862 31.5693 42.6794 31.4981C42.2162 31.0705 41.6819 31.2486 41.2543 31.605C40.2925 32.3888 39.4018 33.3153 38.4399 34.1348C36.2312 36.0589 33.8799 37.8048 30.9586 38.6243C29.6404 38.9806 28.3223 39.4795 26.9329 39.5864C26.3273 39.622 25.7216 39.6576 25.1516 39.4795C23.7978 39.0875 23.4416 38.1967 24.2254 37.0209C24.7954 36.0945 25.6504 35.4175 26.3985 34.598C27.3248 33.529 27.8948 32.3532 27.6098 30.928C27.5029 30.2866 27.2891 29.6096 26.541 29.5027C25.8641 29.3958 25.7216 30.0372 25.5079 30.5004C24.7597 31.9256 23.6197 32.9589 22.3016 33.8854C20.3422 35.275 18.454 36.7359 17.029 38.66C16.6727 39.1232 16.174 39.2657 15.6752 39.3369C12.2552 39.9783 9.22701 38.9806 6.62635 36.7715C2.88567 33.5647 0.890638 29.3958 0.142502 24.5856C0.0712509 24.1937 0.0356255 23.7661 0 23.3741C0.178128 35.8807 10.1176 46 22.3728 46Z" fill="#00CCFF"/>
<path d="M56.2791 13.4542V12.4829C56.2791 11.7357 56.158 11.221 55.9159 10.9388C55.6899 10.6399 55.3508 10.4905 54.8988 10.4905C53.9624 10.4905 53.4943 11.0633 53.4943 12.2089V13.6285H51.0484V12.3334C51.0484 10.9222 51.3794 9.85126 52.0413 9.12072C52.7032 8.37357 53.6799 8 54.9714 8C56.263 8 57.2478 8.38187 57.9258 9.14562C58.6039 9.89277 58.9429 10.972 58.9429 12.3833V12.8315C58.9429 14.6911 58.3213 15.8865 57.0783 16.4178C58.3213 16.9823 58.9429 18.2027 58.9429 20.0788V21.4486C58.9429 22.8599 58.6039 23.9474 57.9258 24.7111C57.2478 25.4583 56.263 25.8319 54.9714 25.8319C53.6799 25.8319 52.6951 25.4583 52.0171 24.7111C51.339 23.9474 51 22.8599 51 21.4486V19.5309H53.5185V21.6229C53.5185 22.7686 53.9786 23.3414 54.8988 23.3414C55.3508 23.3414 55.6899 23.2002 55.9159 22.918C56.158 22.6191 56.2791 22.1044 56.2791 21.3739V20.0041C56.2791 19.2072 56.1419 18.6427 55.8674 18.3106C55.593 17.9619 55.149 17.7876 54.5356 17.7876H53.8817V15.2971H54.6809C55.2136 15.2971 55.6091 15.156 55.8674 14.8737C56.1419 14.5915 56.2791 14.1183 56.2791 13.4542Z" fill="#012969"/>
<path d="M75.4458 27.9737H72.8063V25.6326H67.1155V27.9737H64.5243V23.1919H65.5656C65.9531 22.6939 66.171 21.9384 66.2195 20.9256L66.8249 8.19923H74.2835V23.1919H75.4458V27.9737ZM69.3191 10.6897L68.8348 20.8758C68.7702 21.9882 68.52 22.7603 68.0841 23.1919H71.5712V10.6897H69.3191Z" fill="#012969"/>
<path d="M83.7346 12.2089V21.6229C83.7346 22.7686 84.1947 23.3414 85.1149 23.3414C86.0351 23.3414 86.4952 22.7686 86.4952 21.6229V12.2089C86.4952 11.0633 86.0351 10.4905 85.1149 10.4905C84.1947 10.4905 83.7346 11.0633 83.7346 12.2089ZM81.0708 21.4486V12.3833C81.0708 10.9886 81.4179 9.90937 82.1121 9.14562C82.8063 8.38187 83.8072 8 85.1149 8C86.4226 8 87.4235 8.38187 88.1177 9.14562C88.8119 9.90937 89.159 10.9886 89.159 12.3833V21.4486C89.159 22.8433 88.8119 23.9225 88.1177 24.6862C87.4235 25.45 86.4226 25.8319 85.1149 25.8319C83.8072 25.8319 82.8063 25.45 82.1121 24.6862C81.4179 23.9225 81.0708 22.8433 81.0708 21.4486Z" fill="#012969"/>
<path d="M99.172 8.19923C101.82 8.19923 103.143 9.63541 103.143 12.5078V14.7741C103.143 17.6465 101.82 19.0827 99.172 19.0827H97.9127V25.6326H95.249V8.19923H99.172ZM99.172 10.6897H97.9127V16.5922H99.172C99.6079 16.5922 99.9307 16.4676 100.141 16.2186C100.367 15.9695 100.48 15.5462 100.48 14.9484V12.3334C100.48 11.7357 100.367 11.3123 100.141 11.0633C99.9307 10.8142 99.6079 10.6897 99.172 10.6897Z" fill="#012969"/>
<path d="M111.182 12.2089V21.6229C111.182 22.7686 111.642 23.3414 112.562 23.3414C113.483 23.3414 113.943 22.7686 113.943 21.6229V12.2089C113.943 11.0633 113.483 10.4905 112.562 10.4905C111.642 10.4905 111.182 11.0633 111.182 12.2089ZM108.518 21.4486V12.3833C108.518 10.9886 108.865 9.90937 109.56 9.14562C110.254 8.38187 111.255 8 112.562 8C113.87 8 114.871 8.38187 115.565 9.14562C116.259 9.90937 116.606 10.9886 116.606 12.3833V21.4486C116.606 22.8433 116.259 23.9225 115.565 24.6862C114.871 25.45 113.87 25.8319 112.562 25.8319C111.255 25.8319 110.254 25.45 109.56 24.6862C108.865 23.9225 108.518 22.8433 108.518 21.4486Z" fill="#012969"/>
<path d="M126.716 8.19923C128.089 8.19923 129.09 8.53129 129.719 9.19542C130.349 9.84295 130.664 10.8475 130.664 12.2089V12.8315C130.664 14.6247 130.09 15.7952 128.944 16.3431C130.268 16.8744 130.93 18.1197 130.93 20.0788V21.4984C130.93 22.8433 130.583 23.8727 129.889 24.5866C129.211 25.284 128.21 25.6326 126.886 25.6326H122.696V8.19923H126.716ZM126.547 17.7876H125.36V23.1421H126.886C127.354 23.1421 127.701 23.0176 127.927 22.7686C128.153 22.5029 128.266 22.0546 128.266 21.4237V19.9045C128.266 19.1076 128.129 18.5596 127.854 18.2608C127.596 17.9453 127.16 17.7876 126.547 17.7876ZM126.644 10.6897H125.36V15.2971H126.402C126.934 15.2971 127.33 15.156 127.588 14.8737C127.863 14.5915 128 14.1183 128 13.4542V12.4829C128 11.2874 127.548 10.6897 126.644 10.6897Z" fill="#012969"/>
<path d="M140.816 25.6326H136.893V8.19923H139.557V14.7492H140.816C143.464 14.7492 144.788 16.1854 144.788 19.0577V21.3241C144.788 24.1964 143.464 25.6326 140.816 25.6326ZM139.557 23.1421H140.816C141.252 23.1421 141.575 23.0176 141.785 22.7686C142.011 22.5195 142.124 22.0961 142.124 21.4984V18.8834C142.124 18.2857 142.011 17.8623 141.785 17.6133C141.575 17.3642 141.252 17.2397 140.816 17.2397H139.557V23.1421Z" fill="#012969"/>
<path d="M153.399 10.6897V15.5462H157.056V18.0366H153.399V23.1421H158V25.6326H150.735V8.19923H158V10.6897H153.399Z" fill="#012969"/>
<path d="M54.6168 40.3787C53.5795 40.3787 52.7174 39.9989 52.0304 39.2394C51.3435 38.4725 51 37.5304 51 36.413C51 35.3102 51.3469 34.3754 52.0407 33.6086C52.7346 32.8344 53.6036 32.4474 54.6477 32.4474C55.2522 32.4474 55.7675 32.5533 56.1934 32.7651C56.6193 32.9696 57.0349 33.2763 57.4402 33.6853L56.9044 34.2987C56.2105 33.5976 55.4549 33.2471 54.6374 33.2471C53.8405 33.2471 53.1742 33.5502 52.6384 34.1563C52.1094 34.7625 51.845 35.5147 51.845 36.413C51.845 37.304 52.1129 38.0563 52.6487 38.6697C53.1845 39.2759 53.8474 39.579 54.6374 39.579C55.1045 39.579 55.5167 39.4877 55.8739 39.3051C56.2311 39.1225 56.5952 38.845 56.9662 38.4725L57.502 39.0751C57.0967 39.5059 56.6708 39.8309 56.2243 40.05C55.7778 40.2691 55.2419 40.3787 54.6168 40.3787Z" fill="#012969"/>
<path d="M59.978 40.2472V35.3285H58.0717V34.5836H62.6881V35.3285H60.7818V40.2472H59.978Z" fill="#012969"/>
<path d="M63.739 42V34.5836H64.5324V35.7229C65.0683 34.883 65.7483 34.4631 66.5727 34.4631C67.2528 34.4631 67.847 34.7333 68.3553 35.2737C68.8637 35.8069 69.1178 36.5226 69.1178 37.4209C69.1178 38.3046 68.8637 39.0166 68.3553 39.5571C67.847 40.0975 67.2528 40.3677 66.5727 40.3677C65.7346 40.3677 65.0545 39.9661 64.5324 39.1627V42H63.739ZM66.4284 39.6118C66.9642 39.6118 67.4108 39.4147 67.768 39.0203C68.1252 38.6186 68.3038 38.0818 68.3038 37.4099C68.3038 36.7599 68.1218 36.2341 67.7577 35.8324C67.3936 35.4234 66.9505 35.2189 66.4284 35.2189C65.9132 35.2189 65.4633 35.4271 65.0786 35.8434C64.6939 36.2597 64.5015 36.7855 64.5015 37.4209C64.5015 38.0563 64.6939 38.5821 65.0786 38.9984C65.4633 39.4074 65.9132 39.6118 66.4284 39.6118Z" fill="#012969"/>
<path d="M72.0655 40.3677C71.5228 40.3677 71.0557 40.2107 70.6641 39.8967C70.2726 39.5826 70.0768 39.1444 70.0768 38.5821C70.0768 37.9905 70.2829 37.5341 70.695 37.2127C71.1072 36.8914 71.6602 36.7307 72.354 36.7307C72.9036 36.7307 73.4463 36.8111 73.9821 36.9717V36.7964C73.9821 36.2998 73.8447 35.9201 73.5699 35.6571C73.2952 35.3942 72.907 35.2628 72.4056 35.2628C71.8835 35.2628 71.3442 35.3979 70.7878 35.6681L70.5508 34.9779C71.2103 34.6566 71.856 34.4959 72.488 34.4959C73.2436 34.4959 73.8172 34.7041 74.2088 35.1204C74.5798 35.5147 74.7652 36.0698 74.7652 36.7855V40.2472H73.9821V39.4037C73.5081 40.0464 72.8692 40.3677 72.0655 40.3677ZM72.2201 39.6885C72.7147 39.6885 73.1337 39.5461 73.4772 39.2613C73.8207 38.9765 73.9924 38.6113 73.9924 38.1658V37.64C73.4703 37.4793 72.9517 37.399 72.4365 37.399C71.9487 37.399 71.5675 37.5049 71.2927 37.7167C71.0179 37.9211 70.8805 38.2023 70.8805 38.5602C70.8805 38.9034 71.0076 39.1773 71.2618 39.3818C71.5228 39.5863 71.8423 39.6885 72.2201 39.6885Z" fill="#012969"/>
<path d="M75.8585 40.2472L77.9503 37.3661L75.941 34.5836H76.8478L78.4243 36.7745L80.0009 34.5836H80.887L78.8674 37.3442L80.9695 40.2472H80.0524L78.4037 37.9358L76.7447 40.2472H75.8585Z" fill="#012969"/>
<path d="M86.5773 39.5132C86.0414 40.0902 85.3785 40.3787 84.5885 40.3787C83.7985 40.3787 83.1391 40.0902 82.6101 39.5132C82.088 38.9363 81.827 38.2388 81.827 37.4209C81.827 36.6102 82.0915 35.9164 82.6204 35.3395C83.1562 34.7552 83.8191 34.4631 84.6091 34.4631C85.3991 34.4631 86.0586 34.7515 86.5876 35.3285C87.1165 35.9055 87.381 36.6029 87.381 37.4209C87.381 38.2315 87.1131 38.929 86.5773 39.5132ZM84.6091 39.6228C85.1793 39.6228 85.6464 39.411 86.0105 38.9874C86.3815 38.5638 86.567 38.0416 86.567 37.4209C86.567 36.8074 86.3746 36.2852 85.9899 35.8543C85.6121 35.4234 85.145 35.208 84.5885 35.208C84.0184 35.208 83.5512 35.4234 83.1871 35.8543C82.8231 36.2779 82.641 36.8001 82.641 37.4209C82.641 38.0343 82.8299 38.5565 83.2078 38.9874C83.5856 39.411 84.0527 39.6228 84.6091 39.6228Z" fill="#012969"/>
<path d="M88.7152 40.2472V34.5836H91.2913C91.8203 34.5836 92.2427 34.7114 92.5587 34.967C92.8747 35.2226 93.0327 35.5659 93.0327 35.9967C93.0327 36.6029 92.7373 37.0375 92.1466 37.3004C92.9297 37.5268 93.3213 37.9942 93.3213 38.7026C93.3213 39.1773 93.1461 39.5534 92.7957 39.8309C92.4454 40.1085 91.9748 40.2472 91.384 40.2472H88.7152ZM89.5087 39.5242H91.281C91.6588 39.5242 91.9576 39.4402 92.1775 39.2722C92.3973 39.1043 92.5072 38.8706 92.5072 38.5711C92.5072 38.2936 92.3904 38.0782 92.1569 37.9248C91.9302 37.7714 91.6039 37.6947 91.178 37.6947H89.5087V39.5242ZM89.5087 37.0155H91.147C91.4768 37.0155 91.7378 36.9389 91.9302 36.7855C92.1294 36.6248 92.229 36.3984 92.229 36.1063C92.229 35.8653 92.1363 35.6717 91.9508 35.5257C91.7653 35.3796 91.5043 35.3066 91.1677 35.3066H89.5087V37.0155Z" fill="#012969"/>
<path d="M96.2367 40.3677C95.694 40.3677 95.2269 40.2107 94.8353 39.8967C94.4438 39.5826 94.248 39.1444 94.248 38.5821C94.248 37.9905 94.4541 37.5341 94.8663 37.2127C95.2784 36.8914 95.8314 36.7307 96.5252 36.7307C97.0748 36.7307 97.6175 36.8111 98.1533 36.9717V36.7964C98.1533 36.2998 98.0159 35.9201 97.7411 35.6571C97.4664 35.3942 97.0782 35.2628 96.5768 35.2628C96.0547 35.2628 95.5154 35.3979 94.959 35.6681L94.722 34.9779C95.3815 34.6566 96.0272 34.4959 96.6592 34.4959C97.4148 34.4959 97.9885 34.7041 98.38 35.1204C98.751 35.5147 98.9365 36.0698 98.9365 36.7855V40.2472H98.1533V39.4037C97.6793 40.0464 97.0405 40.3677 96.2367 40.3677ZM96.3913 39.6885C96.8859 39.6885 97.3049 39.5461 97.6484 39.2613C97.9919 38.9765 98.1636 38.6113 98.1636 38.1658V37.64C97.6415 37.4793 97.1229 37.399 96.6077 37.399C96.1199 37.399 95.7387 37.5049 95.4639 37.7167C95.1891 37.9211 95.0517 38.2023 95.0517 38.5602C95.0517 38.9034 95.1788 39.1773 95.433 39.3818C95.694 39.5863 96.0135 39.6885 96.3913 39.6885Z" fill="#012969"/>
<path d="M100.04 40.2472L101.668 38.0563C101.249 37.954 100.906 37.7532 100.638 37.4537C100.377 37.1543 100.246 36.7855 100.246 36.3473C100.246 35.8215 100.425 35.3979 100.782 35.0765C101.139 34.7479 101.63 34.5836 102.255 34.5836H104.759V40.2472H103.966V38.1877H102.492C102.431 38.2754 102.218 38.5748 101.854 39.086C101.49 39.5972 101.211 39.9843 101.019 40.2472H100.04ZM102.317 37.4756H103.966V35.3285H102.297C101.905 35.3285 101.596 35.4234 101.369 35.6133C101.149 35.7959 101.04 36.0515 101.04 36.3802C101.04 36.7161 101.156 36.9827 101.39 37.1799C101.63 37.3771 101.939 37.4756 102.317 37.4756Z" fill="#012969"/>
<path d="M109.415 40.2472V34.5836H110.208V37.8481L113.124 34.5836H114.103L111.878 37.0375L114.165 40.2472H113.227L111.331 37.6509L110.208 38.8779V40.2472H109.415Z" fill="#012969"/>
<path d="M119.579 39.5132C119.043 40.0902 118.38 40.3787 117.59 40.3787C116.8 40.3787 116.141 40.0902 115.612 39.5132C115.09 38.9363 114.828 38.2388 114.828 37.4209C114.828 36.6102 115.093 35.9164 115.622 35.3395C116.158 34.7552 116.821 34.4631 117.611 34.4631C118.401 34.4631 119.06 34.7515 119.589 35.3285C120.118 35.9055 120.382 36.6029 120.382 37.4209C120.382 38.2315 120.115 38.929 119.579 39.5132ZM117.611 39.6228C118.181 39.6228 118.648 39.411 119.012 38.9874C119.383 38.5638 119.568 38.0416 119.568 37.4209C119.568 36.8074 119.376 36.2852 118.991 35.8543C118.614 35.4234 118.146 35.208 117.59 35.208C117.02 35.208 116.553 35.4234 116.189 35.8543C115.825 36.2779 115.643 36.8001 115.643 37.4209C115.643 38.0343 115.831 38.5565 116.209 38.9874C116.587 39.411 117.054 39.6228 117.611 39.6228Z" fill="#012969"/>
<path d="M121.717 40.2472V34.5836H122.469L124.458 37.5633L126.446 34.5836H127.209V40.2472H126.405V35.931L124.437 38.8012L122.49 35.931V40.2472H121.717Z" fill="#012969"/>
<path d="M128.879 40.2472V34.5836H133.495V40.2472H132.702V35.3285H129.672V40.2472H128.879Z" fill="#012969"/>
<path d="M136.753 40.3677C136.21 40.3677 135.743 40.2107 135.351 39.8967C134.96 39.5826 134.764 39.1444 134.764 38.5821C134.764 37.9905 134.97 37.5341 135.382 37.2127C135.794 36.8914 136.347 36.7307 137.041 36.7307C137.591 36.7307 138.133 36.8111 138.669 36.9717V36.7964C138.669 36.2998 138.532 35.9201 138.257 35.6571C137.982 35.3942 137.594 35.2628 137.093 35.2628C136.571 35.2628 136.031 35.3979 135.475 35.6681L135.238 34.9779C135.897 34.6566 136.543 34.4959 137.175 34.4959C137.931 34.4959 138.504 34.7041 138.896 35.1204C139.267 35.5147 139.452 36.0698 139.452 36.7855V40.2472H138.669V39.4037C138.195 40.0464 137.556 40.3677 136.753 40.3677ZM136.907 39.6885C137.402 39.6885 137.821 39.5461 138.164 39.2613C138.508 38.9765 138.68 38.6113 138.68 38.1658V37.64C138.158 37.4793 137.639 37.399 137.124 37.399C136.636 37.399 136.255 37.5049 135.98 37.7167C135.705 37.9211 135.568 38.2023 135.568 38.5602C135.568 38.9034 135.695 39.1773 135.949 39.3818C136.21 39.5863 136.529 39.6885 136.907 39.6885Z" fill="#012969"/>
<path d="M141.03 40.2472V34.5836H141.823V37.0265H144.894V34.5836H145.688V40.2472H144.894V37.7714H141.823V40.2472H141.03Z" fill="#012969"/>
<path d="M147.357 40.2472V34.5836H148.151V39.0641L151.314 34.5836H152.087V40.2472H151.293V35.7667L148.12 40.2472H147.357Z" fill="#012969"/>
<path d="M153.281 40.2472L154.909 38.0563C154.49 37.954 154.146 37.7532 153.878 37.4537C153.617 37.1543 153.487 36.7855 153.487 36.3473C153.487 35.8215 153.665 35.3979 154.023 35.0765C154.38 34.7479 154.871 34.5836 155.496 34.5836H158V40.2472H157.207V38.1877H155.733C155.671 38.2754 155.458 38.5748 155.094 39.086C154.73 39.5972 154.452 39.9843 154.26 40.2472H153.281ZM155.558 37.4756H157.207V35.3285H155.537C155.146 35.3285 154.837 35.4234 154.61 35.6133C154.39 35.7959 154.28 36.0515 154.28 36.3802C154.28 36.7161 154.397 36.9827 154.631 37.1799C154.871 37.3771 155.18 37.4756 155.558 37.4756Z" fill="#012969"/>
</svg>
